<?xml version="1.0" encoding="UTF-8"?>
<svg xmlns="http://www.w3.org/2000/svg" xmlns:xlink="http://www.w3.org/1999/xlink" width="512" height="512" viewBox="0 0 128 128"><defs><linearGradient id="a" x1="97.063" y1="97.063" x2="30.958" y2="30.958" gradientUnits="userSpaceOnUse"><stop offset="0" stop-color="#2568ef"/><stop offset="1" stop-color="#37d4e9"/></linearGradient></defs><path d="M107.657,80.771c-.2.541-.265.7-.4,1l-.189.44a1.75,1.75,0,1,1-3.224-1.362l.2-.473c.108-.248.162-.374.322-.811a1.75,1.75,0,0,1,3.287,1.2ZM64,17.25a46.75,46.75,0,1,0,37,75.333,1.75,1.75,0,1,0-2.768-2.142A43.253,43.253,0,1,1,107.25,64a43.946,43.946,0,0,1-.3,5.112,1.75,1.75,0,0,0,3.477.409A47.451,47.451,0,0,0,110.75,64,46.8,46.8,0,0,0,64,17.25ZM93.937,64a5.757,5.757,0,0,1-5.75,5.751H69.75V88.186A5.75,5.75,0,0,1,64,93.936h0a5.75,5.75,0,0,1-5.746-5.749V69.75H39.811a5.75,5.75,0,0,1,0-11.5H58.25V39.814A5.75,5.75,0,0,1,64,34.064h0a5.751,5.751,0,0,1,5.747,5.749V58.25H88.187A5.758,5.758,0,0,1,93.937,64Zm-3.5,0a2.254,2.254,0,0,0-2.25-2.25H68A1.75,1.75,0,0,1,66.25,60V39.813A2.252,2.252,0,0,0,64,37.564h0a2.248,2.248,0,0,0-2.251,2.249V60A1.75,1.75,0,0,1,60,61.75H39.813a2.25,2.25,0,0,0,0,4.5H60A1.75,1.75,0,0,1,61.75,68V88.187A2.248,2.248,0,0,0,64,90.436h0a2.248,2.248,0,0,0,2.251-2.249V68A1.751,1.751,0,0,1,68,66.25H88.187A2.253,2.253,0,0,0,90.437,64Z" fill="url(#a)"/></svg>
